{"title":"Kundun (1997) 720p BDRip x264-PONG","uid":14267399,"size":992553350,"categoryP":"video","categoryS":"movies","magnet":"?xt=urn:btih:28975d84632ebe97773f7baf367ed7d98c123f08&amp;dn=Kundun+%281997%29+720p+BDRip+x264-PONG&amp;tr=udp%3A%2F%2Ftracker.leechers-paradise.org%3A6969&amp;tr=udp%3A%2F%2Fzer0day.ch%3A1337&amp;tr=udp%3A%2F%2Fopen.demonii.com%3A1337&amp;tr=udp%3A%2F%2Ftracker.coppersurfer.tk%3A6969&amp;tr=udp%3A%2F%2Fexodus.desync.com%3A6969","seeders":0,"leechers":1,"uploader":"Pongydog","files":1,"time":1460262908,"description":"http://www.imdb.com/title/tt0119485/\r\n\r\n\r\n\r\nFrom childhood to adulthood, Tibet's fourteenth Dalai Lama deals with Chinese oppression and other problems. \r\n\r\nDirector: Martin Scorsese  \r\n\r\nWriter: Melissa Mathison  \r\n\r\nStars: Tenzin Thuthob Tsarong,  Gyurme Tethong, \r\n\r\nGeneral\r\nComplete name                            : C:Usersuser1VideosKundun (1997) 720p BDRip x264-PONG.mp4\r\nFormat                                   : MPEG-4\r\nFormat profile                           : Base Media\r\nCodec ID                                 : isom\r\nFile size                                : 947 MiB\r\nDuration                                 : 2h 14mn\r\nOverall bit rate                         : 985 Kbps\r\nMovie name                               : JethroCultCinema\r\nEncoded date                             : UTC 2016-04-08 23:59:20\r\nTagged date                              : UTC 2016-04-08 23:59:20\r\nWriting application                      : Lavf55.23.103\r\n\r\nVideo\r\nID                                       : 1\r\nFormat                                   : AVC\r\nFormat/Info                              : Advanced Video Codec\r\nFormat profile                           :   \r\nFormat settings, CABAC                   : Yes\r\nFormat settings, ReFrames                : 5 frames\r\nCodec ID                                 : avc1\r\nCodec ID/Info                            : Advanced Video Coding\r\nDuration                                 : 2h 14mn\r\nBit rate                                 : 850 Kbps\r\nWidth                                    : 1 280 pixels\r\nHeight                                   : 546 pixels\r\nDisplay aspect ratio                     : 2.35:1\r\nOriginal display aspect ratio            : 2.35:1\r\nFrame rate mode                          : Constant\r\nFrame rate                               : 23.976 fps\r\nColor space                              : YUV\r\nChroma subsampling                       : 4:2:0\r\nBit depth                                : 8 bits\r\nScan type                                : Progressive\r\nBits/(Pixel*Frame)                       : 0.051\r\nStream size                              : 817 MiB (86%)\r\nWriting library                          : x264 core 140 r2345\r\nEncoding settings                        : cabac=1 / ref=5 / deblock=1:0:0 / analyse=0x3:0x133 / me=umh / subme=8 / psy=1 / psy_rd=1.00:0.00 / mixed_ref=0 / me_range=16 / chroma_me=1 / trellis=1 / 8x8dct=1 / cqm=0 / deadzone=21,11 / fast_pskip=1 / chroma_qp_offset=-2 / threads=3 / lookahead_threads=1 / sliced_threads=0 / nr=0 / decimate=1 / interlaced=0 / bluray_compat=0 / constrained_intra=0 / bframes=3 / b_pyramid=0 / b_adapt=2 / b_bias=0 / direct=3 / weightb=1 / open_gop=0 / weightp=2 / keyint=230 / keyint_min=23 / scenecut=40 / intra_refresh=0 / rc_lookahead=50 / rc=2pass / mbtree=1 / bitrate=850 / ratetol=1.0 / qcomp=0.60 / qpmin=10 / qpmax=69 / qpstep=4 / cplxblur=20.0 / qblur=0.5 / vbv_maxrate=24000 / vbv_bufsize=24000 / nal_hrd=none / filler=0 / ip_ratio=1.40 / aq=1:1.00\r\nLanguage                                 : English\r\nEncoded date                             : UTC 2016-04-08 23:59:20\r\nTagged date                              : UTC 2016-04-08 23:59:20\r\n\r\nAudio\r\nID                                       : 2\r\nFormat                                   : AAC\r\nFormat/Info                              : Advanced Audio Codec\r\nFormat profile                           : LC\r\nCodec ID                                 : 40\r\nDuration                                 : 2h 14mn\r\nBit rate mode                            : Constant\r\nBit rate                                 : 128 Kbps\r\nChannel(s)                               : 2 channels\r\nChannel positions                        : Front: L R\r\nSampling rate                            : 48.0 KHz\r\nCompression mode                         : Lossy\r\nStream size                              : 123 MiB (13%)\r\nLanguage                                 : English\r\nEncoded date                             : UTC 2016-04-08 23:59:20\r\nTagged date                              : UTC 2016-04-08 23:59:20","torrent":{"xt":"urn:btih:28975d84632ebe97773f7baf367ed7d98c123f08","amp;dn":"Kundun+%281997%29+720p+BDRip+x264-PONG","amp;tr":["udp%3A%2F%2Ftracker.leechers-paradise.org%3A6969","udp%3A%2F%2Fzer0day.ch%3A1337","udp%3A%2F%2Fopen.demonii.com%3A1337","udp%3A%2F%2Ftracker.coppersurfer.tk%3A6969","udp%3A%2F%2Fexodus.desync.com%3A6969"],"infoHash":"28975d84632ebe97773f7baf367ed7d98c123f08","infoHashBuffer":{"type":"Buffer","data":[40,151,93,132,99,46,190,151,119,63,123,175,54,126,215,217,140,18,63,8]},"announce":[],"urlList":[]}}